<svg width="14" height="14" viewBox="0 0 14 14" fill="none" xmlns="http://www.w3.org/2000/svg">
<path d="M1.46103 4.3198C1.04168 4.43128 0.671261 4.67617 0.407134 5.01653C0.143007 5.35689 -9.09645e-05 5.77375 4.33826e-08 6.20253V8.32911C4.33826e-08 8.84612 0.208012 9.34195 0.578276 9.70752C0.948541 10.0731 1.45073 10.2785 1.97436 10.2785H3.76923C3.91204 10.2785 4.049 10.2225 4.14998 10.1228C4.25096 10.0231 4.30769 9.88783 4.30769 9.74683V4.78481C4.30769 4.64381 4.25096 4.50858 4.14998 4.40888C4.049 4.30918 3.91204 4.25316 3.76923 4.25316H2.55949C2.86749 2.50228 4.67313 1.06329 7 1.06329C9.32687 1.06329 11.1325 2.50228 11.4405 4.25316H10.2308C10.088 4.25316 9.951 4.30918 9.85002 4.40888C9.74904 4.50858 9.69231 4.64381 9.69231 4.78481V9.74683C9.69231 10.0403 9.93354 10.2785 10.2308 10.2785H11.4247C11.3035 10.7831 11.0133 11.2326 10.6012 11.5542C10.1891 11.8758 9.67915 12.0507 9.15385 12.0506H8.33179C8.20683 11.7456 7.97833 11.493 7.68543 11.3361C7.39254 11.1792 7.05349 11.1278 6.7264 11.1907C6.39931 11.2535 6.10454 11.4267 5.89261 11.6806C5.68068 11.9345 5.56479 12.2533 5.56479 12.5823C5.56479 12.9113 5.68068 13.2301 5.89261 13.4839C6.10454 13.7378 6.39931 13.911 6.7264 13.9739C7.05349 14.0367 7.39254 13.9853 7.68543 13.8284C7.97833 13.6715 8.20683 13.4189 8.33179 13.1139H9.15385C10.8769 13.1139 12.3013 11.8521 12.5318 10.214C12.9528 10.1037 13.3251 9.85908 13.5907 9.51816C13.8562 9.17725 14.0001 8.75919 14 8.32911V6.20253C14.0001 5.77375 13.857 5.35689 13.5929 5.01653C13.3287 4.67617 12.9583 4.43128 12.539 4.3198C12.2647 1.83595 9.81867 0 7 0C4.18133 0 1.73528 1.83595 1.46103 4.3198Z" fill="white"/>
</svg>
