<svg width="24" height="24" viewBox="0 0 24 24" fill="none" xmlns="http://www.w3.org/2000/svg">
<path d="M2.95276 11.7782C2.95276 7.48682 2.95276 5.34016 4.2858 4.00711C5.61884 2.67407 7.76455 2.67407 12.0579 2.67407C16.3493 2.67407 18.495 2.67407 19.828 4.00711C21.1611 5.34016 21.1611 7.48586 21.1611 11.7782C21.1611 16.0697 21.1611 18.2163 19.828 19.5494C18.495 20.8824 16.3493 20.8824 12.0569 20.8824C7.76551 20.8824 5.6198 20.8824 4.2858 19.5494C2.95372 18.2154 2.95276 16.0706 2.95276 11.7782Z" stroke="white" stroke-width="1.4375" stroke-linecap="round" stroke-linejoin="round"/>
<path d="M7.26526 16.5699L11.2845 12.5516M11.2845 12.5516L7.26526 6.98657H9.92655L12.8303 11.0058L16.8486 6.98657M11.2845 12.5516L14.1863 16.5699H16.8486L12.8303 11.0049" stroke="white" stroke-width="1.4375" stroke-linecap="round" stroke-linejoin="round"/>
</svg>
