<svg width="25" height="24" viewBox="0 0 25 24" fill="none" xmlns="http://www.w3.org/2000/svg">
<path d="M21.1691 7.85226V15.7046C21.1691 17.0062 20.6521 18.2544 19.7317 19.1748C18.8113 20.0952 17.563 20.6122 16.2614 20.6122H8.40915C7.10755 20.6122 5.85926 20.0952 4.93889 19.1748C4.01852 18.2544 3.50146 17.0062 3.50146 15.7046V7.85226C3.50146 6.55067 4.01852 5.30238 4.93889 4.38201C5.85926 3.46164 7.10755 2.94458 8.40915 2.94458H16.2614C17.563 2.94458 18.8113 3.46164 19.7317 4.38201C20.6521 5.30238 21.1691 6.55067 21.1691 7.85226Z" stroke="white" stroke-width="1.5" stroke-linecap="round" stroke-linejoin="round"/>
<path d="M10.3722 11.7784C9.78984 11.7784 9.22052 11.9511 8.73629 12.2746C8.25205 12.5982 7.87463 13.0581 7.65176 13.5961C7.42889 14.1342 7.37058 14.7263 7.48419 15.2975C7.59781 15.8687 7.87826 16.3933 8.29007 16.8051C8.70188 17.217 9.22656 17.4974 9.79776 17.611C10.369 17.7246 10.961 17.6663 11.4991 17.4435C12.0371 17.2206 12.497 16.8432 12.8206 16.3589C13.1441 15.8747 13.3168 15.3054 13.3168 14.723V5.88916C13.6437 6.8707 14.8873 8.83377 17.243 8.83377" stroke="white" stroke-width="1.5" stroke-linecap="round" stroke-linejoin="round"/>
</svg>
