<svg width="24" height="24" viewBox="0 0 24 24" fill="none" xmlns="http://www.w3.org/2000/svg">
<path d="M7.65605 1.96313H15.901C19.0419 1.96313 21.5939 4.51513 21.5939 7.65605V15.901C21.5939 17.4108 20.9941 18.8588 19.9265 19.9265C18.8588 20.9941 17.4108 21.5939 15.901 21.5939H7.65605C4.51513 21.5939 1.96313 19.0419 1.96313 15.901V7.65605C1.96313 6.14619 2.56292 4.69818 3.63055 3.63055C4.69818 2.56292 6.14619 1.96313 7.65605 1.96313ZM7.45974 3.92621C6.52259 3.92621 5.62382 4.29849 4.96116 4.96116C4.29849 5.62382 3.92621 6.52259 3.92621 7.45974V16.0973C3.92621 18.0505 5.50648 19.6308 7.45974 19.6308H16.0973C17.0344 19.6308 17.9332 19.2585 18.5959 18.5959C19.2585 17.9332 19.6308 17.0344 19.6308 16.0973V7.45974C19.6308 5.50648 18.0505 3.92621 16.0973 3.92621H7.45974ZM16.9316 5.39851C17.257 5.39851 17.569 5.52778 17.7991 5.75787C18.0292 5.98796 18.1585 6.30003 18.1585 6.62543C18.1585 6.95083 18.0292 7.26291 17.7991 7.493C17.569 7.72309 17.257 7.85236 16.9316 7.85236C16.6062 7.85236 16.2941 7.72309 16.064 7.493C15.8339 7.26291 15.7047 6.95083 15.7047 6.62543C15.7047 6.30003 15.8339 5.98796 16.064 5.75787C16.2941 5.52778 16.6062 5.39851 16.9316 5.39851ZM11.7785 6.87082C13.0801 6.87082 14.3284 7.38788 15.2488 8.30825C16.1691 9.22862 16.6862 10.4769 16.6862 11.7785C16.6862 13.0801 16.1691 14.3284 15.2488 15.2488C14.3284 16.1691 13.0801 16.6862 11.7785 16.6862C10.4769 16.6862 9.22862 16.1691 8.30825 15.2488C7.38788 14.3284 6.87082 13.0801 6.87082 11.7785C6.87082 10.4769 7.38788 9.22862 8.30825 8.30825C9.22862 7.38788 10.4769 6.87082 11.7785 6.87082ZM11.7785 8.83389C10.9975 8.83389 10.2486 9.14413 9.69635 9.69635C9.14413 10.2486 8.83389 10.9975 8.83389 11.7785C8.83389 12.5595 9.14413 13.3084 9.69635 13.8607C10.2486 14.4129 10.9975 14.7231 11.7785 14.7231C12.5595 14.7231 13.3084 14.4129 13.8607 13.8607C14.4129 13.3084 14.7231 12.5595 14.7231 11.7785C14.7231 10.9975 14.4129 10.2486 13.8607 9.69635C13.3084 9.14413 12.5595 8.83389 11.7785 8.83389Z" fill="white"/>
</svg>
