<svg width="127" height="63" viewBox="0 0 127 63" fill="none" xmlns="http://www.w3.org/2000/svg">
<path d="M114.5 51.5H123C124.105 51.5 125 50.6046 125 49.5V31.6056C125 31.2107 124.883 30.8247 124.664 30.4962L112.594 12.3906C112.223 11.8342 111.598 11.5 110.93 11.5H97.9862C96.887 11.5 95.9938 12.387 95.9862 13.4861L95.8332 35.5139C95.8256 36.613 94.9324 37.5 93.8333 37.5H27.006C25.9018 37.5 25.0065 38.3948 25.006 39.499L25.001 49.499C25.0004 50.604 25.896 51.5 27.001 51.5H33.5" stroke="black" stroke-width="4"/>
<path d="M57.5 51L90.5 51" stroke="black" stroke-width="4"/>
<path d="M102 13.5V27.5C102 29.7091 103.791 31.5 106 31.5H123" stroke="black" stroke-width="3"/>
<path d="M45.5 48C47.1569 48 48.5 49.3431 48.5 51C48.5 52.6569 47.1569 54 45.5 54C43.8431 54 42.5 52.6569 42.5 51C42.5 49.3431 43.8431 48 45.5 48Z" fill="white" stroke="black" stroke-width="18"/>
<circle cx="102.5" cy="51" r="9" fill="white" stroke="black" stroke-width="6"/>
<g clip-path="url(#clip0_169_1047)">
<path d="M78.957 13.4175C78.957 13.0755 78.852 12.759 78.672 12.498L78.675 12.504L78.585 12.384L78.5775 12.375C78.5476 12.339 78.5161 12.3045 78.483 12.2715L78.468 12.2565L78.426 12.213L66.693 0.481498C66.6595 0.448367 66.6244 0.416832 66.588 0.386998L66.555 0.356998L66.474 0.296998L66.4335 0.268498L66.3465 0.215998L66.309 0.193498L66.1875 0.134998L66.1365 0.113998L66.0555 0.083998L65.997 0.065998L65.9055 0.041998L65.859 0.031498L65.721 0.010498H51.138C50.238 0.010498 49.5075 0.736498 49.5015 1.635V34.362C49.5015 35.2665 50.235 35.9985 51.138 35.9985H77.319C78.2235 35.9985 78.9555 35.265 78.9555 34.362V13.4595L78.957 13.4175ZM67.1715 5.58L73.3665 11.7825H67.1715V5.58ZM52.773 32.727V3.2715H63.903V13.422C63.903 14.3265 64.6365 15.0585 65.5395 15.0585H75.69V32.727H52.773Z" fill="black"/>
<path d="M69.6809 26.181H58.7249C58.2909 26.181 57.8746 26.3534 57.5677 26.6603C57.2608 26.9672 57.0884 27.3835 57.0884 27.8175C57.0884 28.2515 57.2608 28.6678 57.5677 28.9747C57.8746 29.2816 58.2909 29.454 58.7249 29.454H58.7729H58.7699H69.7259C70.1599 29.454 70.5762 29.2816 70.8831 28.9747C71.19 28.6678 71.3624 28.2515 71.3624 27.8175C71.3624 27.3835 71.19 26.9672 70.8831 26.6603C70.5762 26.3534 70.1599 26.181 69.7259 26.181H69.6779H69.6809ZM69.6809 19.6365H58.7249C58.2909 19.6365 57.8746 19.8089 57.5677 20.1158C57.2608 20.4227 57.0884 20.839 57.0884 21.273C57.0884 21.707 57.2608 22.1233 57.5677 22.4302C57.8746 22.7371 58.2909 22.9095 58.7249 22.9095H58.7729H58.7699H69.7259C70.1599 22.9095 70.5762 22.7371 70.8831 22.4302C71.19 22.1233 71.3624 21.707 71.3624 21.273C71.3624 20.839 71.19 20.4227 70.8831 20.1158C70.5762 19.8089 70.1599 19.6365 69.7259 19.6365H69.6779H69.6809Z" fill="black"/>
</g>
<path d="M43.5 32H24" stroke="black" stroke-width="3"/>
<path d="M47.5 26H19" stroke="black" stroke-width="3"/>
<path d="M44 20H6" stroke="black" stroke-width="3"/>
<path d="M42 13H0" stroke="black" stroke-width="3"/>
<path d="M46 7L11 7" stroke="black" stroke-width="3"/>
<defs>
<clipPath id="clip0_169_1047">
<rect width="30" height="36" fill="white" transform="translate(49.5)"/>
</clipPath>
</defs>
</svg>
